<svg width="51" height="15" viewBox="0 0 51 15" fill="none" xmlns="http://www.w3.org/2000/svg">
<path d="M0.000944025 0.00596801C3.04251 0.00596801 6.08343 0.00862889 9.125 0.00463867C9.12827 0.835934 9.13154 1.66723 9.12369 2.49919C6.97582 2.49852 4.82729 2.49719 2.67876 2.49985C2.68006 3.5433 2.67745 4.5874 2.68006 5.63085C4.56101 5.62686 6.44196 5.63018 8.32225 5.62952C8.33271 6.45815 8.32028 7.28679 8.32879 8.11542C6.44588 8.11343 4.56363 8.11742 2.68137 8.11343C2.67679 10.0793 2.67876 12.0451 2.68006 14.011C1.78833 14.001 0.896601 14.001 0.0048695 14.0103C-0.00494413 9.34241 0.00356099 4.67386 0.000944025 0.00596801Z" fill="#3F3F3F"/>
<path d="M10.8991 14.0104C10.8958 9.3405 10.8952 4.67062 10.8998 0.000732422C14.0427 0.010708 17.1864 0.00538825 20.33 0.00339314C20.3307 0.835354 20.3267 1.66731 20.332 2.49861C18.0624 2.49861 15.7922 2.49462 13.5226 2.50127C13.5298 3.47754 13.5233 4.45448 13.5259 5.43142C15.6103 5.4261 17.6941 5.42943 19.7785 5.42943C19.7706 6.2574 19.7798 7.08603 19.7726 7.914C17.6908 7.916 15.6083 7.91733 13.5265 7.91267C13.5213 9.11107 13.5318 10.3095 13.5213 11.5072C15.8936 11.5152 18.2659 11.5085 20.6388 11.5105C20.6447 12.3418 20.6447 13.1731 20.6388 14.0051C17.3925 14.0077 14.1454 13.9964 10.8991 14.0104Z" fill="#3F3F3F"/>
<path d="M22.6517 0.000732422C23.5964 0.00804782 24.5411 0.0100429 25.4859 0.000732422C27.1902 3.25475 28.8938 6.50878 30.6014 9.7608C30.6073 6.50944 30.6066 3.25808 30.6014 0.00738319C31.4342 0.00272794 32.2671 0.00871407 33.0999 0.00405882C33.1039 4.67195 33.1032 9.33983 33.1006 14.0077C32.2095 14.0011 31.3184 14.0051 30.428 14.0051C28.6799 10.6726 26.9278 7.34207 25.1705 4.01423C25.1712 7.34606 25.1718 10.6772 25.1699 14.0091C24.3305 14.0017 23.4904 13.9984 22.6504 14.011C22.6563 9.34116 22.6537 4.67062 22.6517 0.000732422Z" fill="#3F3F3F"/>
<path d="M35.6588 0.00341797C37.6045 0.00940329 39.5502 0.00341716 41.4959 0.00674234C42.563 0.0240333 43.6555 0.32995 44.4779 1.04619C45.3396 1.73251 45.8427 2.76731 46.1574 3.81075C46.423 4.76108 46.5198 5.75199 46.5362 6.73757C46.4976 8.25984 46.2863 9.81868 45.5947 11.1887C45.1616 12.1377 44.44 12.9563 43.5358 13.4611C42.8731 13.8275 42.1161 13.9818 41.3677 14.0018C39.4664 14.0111 37.5646 13.9944 35.6633 14.0104C35.6503 9.34118 35.6594 4.67197 35.6588 0.00341797ZM38.3104 2.4441C38.3032 5.48398 38.3065 8.52385 38.3084 11.5637C39.1544 11.5597 39.9996 11.5637 40.8456 11.5617C41.1917 11.5524 41.545 11.5085 41.8642 11.3662C42.4825 11.1069 42.9215 10.5449 43.2126 9.95102C43.704 8.86834 43.8113 7.64867 43.7792 6.47089C43.7498 5.34232 43.581 4.13395 42.8489 3.23749C42.4086 2.68285 41.6797 2.49863 41.0111 2.45407C40.1109 2.43745 39.2106 2.4574 38.3104 2.4441Z" fill="#3F3F3F"/>
<path d="M48.3253 14.0136C48.3155 9.34243 48.3168 4.67121 48.3247 0C49.2151 0.0133007 50.1062 0.00332502 50.9966 0.00399005C51.0005 4.67055 51.0025 9.33777 50.9959 14.005C50.1055 14.009 49.2151 13.9917 48.3253 14.0136Z" fill="#3F3F3F"/>
</svg>
