<svg width="38" height="38" viewBox="0 0 38 38" fill="none" xmlns="http://www.w3.org/2000/svg">
<path d="M30.0943 11.5747C30.0943 10.9608 29.8504 10.3719 29.4163 9.9378C28.9821 9.50366 28.3933 9.25977 27.7793 9.25977H21.9919L30.0943 23.1495" stroke="#BCA4FF" stroke-width="2.31496" stroke-linecap="round" stroke-linejoin="round"/>
<path d="M30.0942 28.9369C33.2905 28.9369 35.8816 26.3457 35.8816 23.1495C35.8816 19.9532 33.2905 17.3621 30.0942 17.3621C26.8979 17.3621 24.3068 19.9532 24.3068 23.1495C24.3068 26.3457 26.8979 28.9369 30.0942 28.9369Z" stroke="#BCA4FF" stroke-width="2.31496" stroke-linecap="round" stroke-linejoin="round"/>
<path d="M6.94523 28.9369C10.1415 28.9369 12.7326 26.3457 12.7326 23.1495C12.7326 19.9532 10.1415 17.3621 6.94523 17.3621C3.74894 17.3621 1.15784 19.9532 1.15784 23.1495C1.15784 26.3457 3.74894 28.9369 6.94523 28.9369Z" stroke="#BCA4FF" stroke-width="2.31496" stroke-linecap="round" stroke-linejoin="round"/>
<path d="M6.94528 9.25977H10.9965L19.0988 23.1495" stroke="#BCA4FF" stroke-width="2.31496" stroke-linecap="round" stroke-linejoin="round"/>
<path d="M24.6094 13.8896H13.6973L6.94528 23.1495" stroke="#BCA4FF" stroke-width="2.31496" stroke-linecap="round" stroke-linejoin="round"/>
</svg>
