<svg width="38" height="38" viewBox="0 0 38 38" fill="none" xmlns="http://www.w3.org/2000/svg">
<path d="M18.5192 32.4094C26.1903 32.4094 32.409 26.1907 32.409 18.5196C32.409 10.8485 26.1903 4.62988 18.5192 4.62988C10.8481 4.62988 4.62946 10.8485 4.62946 18.5196C4.62946 26.1907 10.8481 32.4094 18.5192 32.4094Z" stroke="#BCA4FF" stroke-width="2.31496" stroke-linecap="round" stroke-linejoin="round"/>
<path d="M7.17352 26.5344L8.86313 25.5145C9.03285 25.412 9.17341 25.2677 9.27134 25.0953C9.36927 24.9229 9.42129 24.7283 9.4224 24.53L9.45174 19.3027C9.45297 19.0843 9.51596 18.8707 9.63344 18.6866L12.5044 14.1872C12.5892 14.0542 12.7004 13.94 12.831 13.8515C12.9616 13.7631 13.1089 13.7022 13.2639 13.6727C13.4189 13.6433 13.5782 13.6458 13.7322 13.6801C13.8862 13.7145 14.0315 13.78 14.1592 13.8725L17.0031 15.9329C17.244 16.1074 17.5428 16.1825 17.8376 16.1426L22.3923 15.5258C22.6717 15.4879 22.9277 15.3494 23.1122 15.1362L26.318 11.4322C26.5126 11.2073 26.6132 10.9162 26.5989 10.6191L26.4299 7.10278" stroke="#BCA4FF" stroke-width="2.31496" stroke-linecap="round" stroke-linejoin="round"/>
<path d="M27.0654 29.4698L25.5127 27.914C25.3674 27.7685 25.1861 27.6643 24.9872 27.6121L21.8825 26.7973C21.6069 26.725 21.3677 26.5536 21.2106 26.3159C21.0536 26.0782 20.9896 25.791 21.0311 25.5091L21.3762 23.1658C21.4053 22.968 21.4852 22.7811 21.608 22.6233C21.7308 22.4656 21.8924 22.3423 22.0771 22.2656L26.4828 20.4344C26.6863 20.3498 26.9097 20.325 27.1268 20.3631C27.3439 20.4011 27.5456 20.5003 27.7082 20.6491L31.3101 23.9432" stroke="#BCA4FF" stroke-width="2.31496" stroke-linecap="round" stroke-linejoin="round"/>
</svg>
